# xmcd
#
# Track frame offsets:
#	150
#	23470
#	43832
#	62567
#
# Disc length: 1145 seconds
#
# Revision: 5
# Processed by: cddbd v1.5.2PL0 Copyright (c) Steve Scherf et al.
# Submitted via: EasyCDDAExtractor 10.0.6.1
#
DISCID=28047704
DTITLE=Psy:code - Pre-album release 2009
DYEAR=2009
DGENRE=Metal
TTITLE0=My Senario Verge
TTITLE1=Friend Of Teena
TTITLE2=Pulling The Strings
TTITLE3=Set It Loose
EXTD=YEAR: 2004
EXTT0=
EXTT1=
EXTT2=
EXTT3=
PLAYORDER=
